<svg width="37" height="30" viewBox="0 0 37 30" fill="none" xmlns="http://www.w3.org/2000/svg">
<path d="M34.262 10.8582H26.8781C24.6846 10.8582 22.9065 12.6363 22.9065 14.8298V26.0229C22.9065 28.2164 24.6846 29.9946 26.8781 29.9946H35.1644L36.5631 13.3609C36.6764 12.0139 35.6136 10.8582 34.262 10.8582Z" fill="#58BEBF"/>
<path d="M18.9351 0.00537109H17.0919L16.3796 8.83266C16.1773 11.3401 14.0833 13.2719 11.5678 13.2719H10.1838V27.5808H14.8754C14.8754 27.615 14.8753 27.6491 14.8753 27.6829C14.8738 28.9593 15.9081 29.9945 17.1845 29.9945H22.235C21.319 28.9252 20.7638 27.538 20.7638 26.0229V14.8297C20.7638 12.9734 21.5964 11.3087 22.9066 10.1864V3.97694C22.9067 1.78351 21.1285 0.00537109 18.9351 0.00537109V0.00537109Z" fill="#58BEBF"/>
<path d="M0 11.8374H8.04093V29.0155H0V11.8374Z" fill="#58BEBF"/>
</svg>
